Coordinates
version=1
nRows=5
nColumns=40
inDegrees=yes

Units are S.I. units (second, meters, Newtons, ...)
If the header above contains a line with 'inDegrees', this indicates whether rotational values are in degrees (yes) or radians (no).

endheader
time	pelvis_tilt	pelvis_list	pelvis_rotation	pelvis_tx	pelvis_ty	pelvis_tz	hip_flexion_r	hip_adduction_r	hip_rotation_r	knee_angle_r	knee_angle_r_beta	ankle_angle_r	subtalar_angle_r	mtp_angle_r	hip_flexion_l	hip_adduction_l	hip_rotation_l	knee_angle_l	knee_angle_l_beta	ankle_angle_l	subtalar_angle_l	mtp_angle_l	lumbar_extension	lumbar_bending	lumbar_rotation	arm_flex_r	arm_add_r	arm_rot_r	elbow_flex_r	pro_sup_r	wrist_flex_r	wrist_dev_r	arm_flex_l	arm_add_l	arm_rot_l	elbow_flex_l	pro_sup_l	wrist_flex_l	wrist_dev_l
      0.06000000	     -3.67194496	      8.08165260	      3.85663223	     -0.52462823	      0.89785740	      0.20382950	     31.57059229	    -13.58984321	    -16.00234824	     10.86814371	      0.18968489	     -1.12856531	      5.66745864	      0.00000000	    -17.28389815	      4.83562610	    -16.49687479	     12.53782229	      0.21882628	      1.94013788	     13.69487592	      0.00000000	      1.10666534	     -6.15462265	      2.45339099	     25.98976212	    -11.71280473	     25.98976212	     81.45164781	     43.18326117	      0.00000000	      0.00000000	     25.98976212	    -11.71280473	     25.98976212	     81.45164781	     43.18326117	      0.00000000	      0.00000000
      0.06500000	     -3.52230684	      7.85493091	      3.90925476	     -0.51682389	      0.89773143	      0.20446003	     31.34269791	    -13.36976483	    -15.92513194	     11.48096402	      0.20038062	     -1.58817389	      5.17006773	      0.00000000	    -17.63015496	      4.39965253	    -16.49035649	     12.97104990	      0.22638753	      1.03083964	     13.30792731	      0.00000000	      0.96736516	     -5.79439487	      2.23565947	     26.00946048	    -11.71832700	     26.00946048	     81.43028940	     43.19981670	      0.00000000	      0.00000000	     26.00946048	    -11.71832700	     26.00946048	     81.43028940	     43.19981670	      0.00000000	      0.00000000
      0.07000000	     -3.42623813	      7.71427270	      3.90640813	     -0.50905831	      0.89751010	      0.20525100	     31.14150492	    -13.18323552	    -15.54220702	     11.99442857	      0.20934227	     -1.95637707	      5.04891220	      0.00000000	    -17.94681525	      4.09720350	    -16.28770912	     13.36305657	      0.23322934	      0.42747634	     13.16764465	      0.00000000	      0.86251705	     -5.51301693	      2.06174313	     26.01423369	    -11.71966447	     26.01423369	     81.42512265	     43.20380704	      0.00000000	      0.00000000	     26.01423369	    -11.71966447	     26.01423369	     81.42512265	     43.20380704	      0.00000000	      0.00000000
      0.07500000	     -3.16556086	      7.38603064	      3.92681922	     -0.50112364	      0.89779467	      0.20594091	     30.85637930	    -12.90047032	    -15.75932186	     12.81783884	      0.22371349	     -2.62761787	      4.26455537	      0.00000000	    -18.27479929	      3.51642884	    -16.57608540	     13.99094397	      0.24418804	     -0.88084909	     12.37008226	      0.00000000	      0.62159909	     -5.09506452	      1.77807027	     26.02789567	    -11.72349197	     26.02789567	     81.41034561	     43.21519101	      0.00000000	      0.00000000	     26.02789567	    -11.72349197	     26.02789567	     81.41034561	     43.21519101	      0.00000000	      0.00000000
      0.08000000	     -2.95505415	      7.03288142	      3.95674585	     -0.49321314	      0.89802694	      0.20658767	     30.54496438	    -12.57428998	    -15.81446916	     13.48514298	      0.23536015	     -3.20719589	      3.70330131	      0.00000000	    -18.55585159	      2.94957442	    -16.58556111	     14.61467680	      0.25507423	     -1.91359869	     11.65393365	      0.00000000	      0.43874558	     -4.59788114	      1.43178921	     26.04391874	    -11.72797902	     26.04391874	     81.39304325	     43.22846406	      0.00000000	      0.00000000	     26.04391874	    -11.72797902	     26.04391874	     81.39304325	     43.22846406	      0.00000000	      0.00000000
